<?xml version="1.0" encoding="UTF-8" standalone="no"?>
<!-- Created with Inkscape (http://www.inkscape.org/) -->

<svg
   xmlns:dc="http://purl.org/dc/elements/1.1/"
   xmlns:cc="http://creativecommons.org/ns#"
   xmlns:rdf="http://www.w3.org/1999/02/22-rdf-syntax-ns#"
   xmlns:svg="http://www.w3.org/2000/svg"
   xmlns="http://www.w3.org/2000/svg"
   xmlns:sodipodi="http://sodipodi.sourceforge.net/DTD/sodipodi-0.dtd"
   xmlns:inkscape="http://www.inkscape.org/namespaces/inkscape"
   width="200"
   height="200"
   viewBox="0 0 199.99999 200"
   id="svg2"
   version="1.1"
   inkscape:version="0.91 r13725"
   inkscape:export-filename="/home/xy124/workspace/junglespeed/data/8.png"
   inkscape:export-xdpi="88.26564"
   inkscape:export-ydpi="88.26564"
   sodipodi:docname="1.svg">
  <defs
     id="defs4">
    <inkscape:perspective
       sodipodi:type="inkscape:persp3d"
       inkscape:vp_x="7.9548125 : 19.839962 : 1"
       inkscape:vp_y="0 : 1000 : 0"
       inkscape:vp_z="207.9548 : 19.839962 : 1"
       inkscape:persp3d-origin="107.95481 : -13.493371 : 1"
       id="perspective4188" />
  </defs>
  <sodipodi:namedview
     id="base"
     pagecolor="#ffffff"
     bordercolor="#666666"
     borderopacity="1.0"
     inkscape:pageopacity="0.0"
     inkscape:pageshadow="2"
     inkscape:zoom="1.6342308"
     inkscape:cx="247.46583"
     inkscape:cy="119.27747"
     inkscape:document-units="px"
     inkscape:current-layer="layer1"
     showgrid="false"
     units="px"
     inkscape:window-width="1366"
     inkscape:window-height="768"
     inkscape:window-x="0"
     inkscape:window-y="0"
     inkscape:window-maximized="0" />
  <metadata
     id="metadata7">
    <rdf:RDF>
      <cc:Work
         rdf:about="">
        <dc:format>image/svg+xml</dc:format>
        <dc:type
           rdf:resource="http://purl.org/dc/dcmitype/StillImage" />
        <dc:title></dc:title>
      </cc:Work>
    </rdf:RDF>
  </metadata>
  <g
     inkscape:label="Layer 1"
     inkscape:groupmode="layer"
     id="layer1"
     transform="translate(0,-852.36216)">
    <rect
       style="opacity:0.98999999;fill:none;fill-opacity:0.41666667;fill-rule:nonzero;stroke:#000000;stroke-width:2;stroke-linecap:butt;stroke-linejoin:bevel;stroke-miterlimit:4;stroke-dasharray:none;stroke-dashoffset:0;stroke-opacity:1"
       id="rect4231"
       width="198.77232"
       height="201.6741"
       x="1.4508852"
       y="852.13892" />
    <rect
       style="opacity:0.98999999;fill:none;fill-opacity:0.41666667;fill-rule:nonzero;stroke:#000000;stroke-width:2;stroke-linecap:butt;stroke-linejoin:bevel;stroke-miterlimit:4;stroke-dasharray:none;stroke-dashoffset:0;stroke-opacity:1"
       id="rect4210"
       width="24.665178"
       height="27.566965"
       x="88.504456"
       y="942.0943" />
    <circle
       style="opacity:0.98999999;fill:none;fill-opacity:0.41666667;fill-rule:nonzero;stroke:#000000;stroke-width:2;stroke-linecap:butt;stroke-linejoin:bevel;stroke-miterlimit:4;stroke-dasharray:none;stroke-dashoffset:0;stroke-opacity:1"
       id="path4212"
       cx="52.232136"
       cy="904.37109"
       r="36.27232" />
    <circle
       style="opacity:0.98999999;fill:none;fill-opacity:0.41666667;fill-rule:nonzero;stroke:#000000;stroke-width:2;stroke-linecap:butt;stroke-linejoin:bevel;stroke-miterlimit:4;stroke-dasharray:none;stroke-dashoffset:0;stroke-opacity:1"
       id="path4212-3"
       cx="152.34375"
       cy="1005.9336"
       r="36.27232" />
    <path
       style="opacity:0.98999999;fill:#808080;fill-opacity:0.41666667;fill-rule:nonzero;stroke:#000000;stroke-width:1.22381735;stroke-linecap:butt;stroke-linejoin:bevel;stroke-miterlimit:4;stroke-dasharray:none;stroke-dashoffset:0;stroke-opacity:1"
       d="m 2.4575877,100.54838 0,-99.74112053 98.2113423,0 98.21135,0 0,99.74112053 0,99.74111 -98.21135,0 -98.2113423,0 0,-99.74111 z M 161.1809,189.90418 c 13.59804,-3.4778 23.96089,-13.59136 27.29868,-26.642 3.33022,-13.02105 -0.27515,-26.71664 -9.45768,-35.92649 -14.96728,-15.01181 -38.42624,-15.05766 -53.23552,-0.10403 -7.22878,7.29922 -10.73759,15.85677 -10.73759,26.18758 0,6.73261 1.09338,11.40476 4.05309,17.31917 7.66652,15.3201 25.4483,23.41919 42.07902,19.16577 z m -46.88532,-85.91353 c 0.11675,-9.923979 -0.0416,-14.245584 -0.54394,-14.850945 -0.57279,-0.69016 -3.12606,-0.822161 -13.3207,-0.688685 l -12.612091,0.165136 -0.163881,14.850744 -0.163888,14.85075 13.31992,-0.16494 13.31992,-0.16494 0.16466,-13.99712 z M 60.282958,88.613463 c 9.000749,-1.889727 18.065644,-8.132915 23.334728,-16.071133 1.260654,-1.89926 3.115386,-5.805912 4.121627,-8.681448 1.582384,-4.521993 1.829809,-6.096179 1.83162,-11.653293 C 89.574452,41.409299 86.164107,33.094301 78.649795,25.579985 71.262583,18.19277 62.663846,14.670943 52.022191,14.673979 41.550752,14.676967 33.609063,18.007547 25.947905,25.608996 20.315388,31.197615 17.117846,36.899442 15.600557,44.06029 9.9513984,70.721498 33.528686,94.230595 60.282958,88.613463 Z"
       id="path4233"
       inkscape:connector-curvature="0"
       transform="translate(-7.6293945e-6,852.36216)" />
  </g>
</svg>
