<?xml version="1.0" encoding="UTF-8" standalone="no"?>
<!-- Created with Inkscape (http://www.inkscape.org/) -->

<svg
   xmlns:dc="http://purl.org/dc/elements/1.1/"
   xmlns:cc="http://creativecommons.org/ns#"
   xmlns:rdf="http://www.w3.org/1999/02/22-rdf-syntax-ns#"
   xmlns:svg="http://www.w3.org/2000/svg"
   xmlns="http://www.w3.org/2000/svg"
   xmlns:sodipodi="http://sodipodi.sourceforge.net/DTD/sodipodi-0.dtd"
   xmlns:inkscape="http://www.inkscape.org/namespaces/inkscape"
   width="200"
   height="200"
   viewBox="0 0 199.99999 200"
   id="svg2"
   version="1.1"
   inkscape:version="0.91 r13725"
   inkscape:export-filename="/home/xy124/workspace/junglespeed/data/8.png"
   inkscape:export-xdpi="88.26564"
   inkscape:export-ydpi="88.26564"
   sodipodi:docname="7.svg">
  <defs
     id="defs4">
    <inkscape:perspective
       sodipodi:type="inkscape:persp3d"
       inkscape:vp_x="7.9548125 : 19.839962 : 1"
       inkscape:vp_y="0 : 1000 : 0"
       inkscape:vp_z="207.9548 : 19.839962 : 1"
       inkscape:persp3d-origin="107.95481 : -13.493371 : 1"
       id="perspective4188" />
  </defs>
  <sodipodi:namedview
     id="base"
     pagecolor="#ffffff"
     bordercolor="#666666"
     borderopacity="1.0"
     inkscape:pageopacity="0.0"
     inkscape:pageshadow="2"
     inkscape:zoom="1.6342308"
     inkscape:cx="247.46583"
     inkscape:cy="119.27747"
     inkscape:document-units="px"
     inkscape:current-layer="layer1"
     showgrid="false"
     units="px"
     inkscape:window-width="1366"
     inkscape:window-height="768"
     inkscape:window-x="0"
     inkscape:window-y="0"
     inkscape:window-maximized="0" />
  <metadata
     id="metadata7">
    <rdf:RDF>
      <cc:Work
         rdf:about="">
        <dc:format>image/svg+xml</dc:format>
        <dc:type
           rdf:resource="http://purl.org/dc/dcmitype/StillImage" />
        <dc:title></dc:title>
      </cc:Work>
    </rdf:RDF>
  </metadata>
  <g
     inkscape:label="Layer 1"
     inkscape:groupmode="layer"
     id="layer1"
     transform="translate(0,-852.36216)">
    <rect
       style="opacity:0.98999999;fill:none;fill-opacity:0.41666667;fill-rule:nonzero;stroke:#000000;stroke-width:2;stroke-linecap:butt;stroke-linejoin:bevel;stroke-miterlimit:4;stroke-dasharray:none;stroke-dashoffset:0;stroke-opacity:1"
       id="rect4231"
       width="198.77232"
       height="201.6741"
       x="1.4508852"
       y="852.13892" />
    <path
       style="fill:none;fill-rule:evenodd;stroke:#000000;stroke-width:0.71348345px;stroke-linecap:butt;stroke-linejoin:miter;stroke-opacity:1"
       d="m 79.127099,906.64793 21.041531,18.01767 18.97863,-16.63169 -10.31447,0 -0.41258,-36.49734 -19.391216,-0.46199 0,35.11136 z"
       id="path4381"
       inkscape:connector-curvature="0" />
    <path
       style="fill:none;fill-rule:evenodd;stroke:#000000;stroke-width:0.71348345px;stroke-linecap:butt;stroke-linejoin:miter;stroke-opacity:1"
       d="m 119.09091,985.97107 -21.17349,-17.86233 -18.855777,16.77075 10.314191,-0.0759 0.681038,36.49338 19.394078,0.3193 -0.25827,-35.1104 z"
       id="path4381-6"
       inkscape:connector-curvature="0" />
    <path
       style="fill:none;fill-rule:evenodd;stroke:#000000;stroke-width:0.71348345px;stroke-linecap:butt;stroke-linejoin:miter;stroke-opacity:1"
       d="m 149.40495,923.05124 -14.78776,23.4244 19.19973,16.37597 -1.49055,-10.2062 36.05459,-5.68248 -2.34509,-19.25444 -34.74285,5.07395 z"
       id="path4381-7"
       inkscape:connector-curvature="0" />
    <path
       style="fill:none;fill-rule:evenodd;stroke:#000000;stroke-width:0.71348345px;stroke-linecap:butt;stroke-linejoin:miter;stroke-opacity:1"
       d="m 53.435701,956.81523 19.797276,-19.37654 -14.899307,-20.36693 -0.906533,10.27455 -36.392365,-2.79675 -2.164487,19.27557 34.975487,3.08592 z"
       id="path4381-5"
       inkscape:connector-curvature="0" />
    <ellipse
       style="opacity:0.98999999;fill:none;fill-opacity:0.41666667;fill-rule:nonzero;stroke:#000000;stroke-width:2;stroke-linecap:butt;stroke-linejoin:bevel;stroke-miterlimit:4;stroke-dasharray:none;stroke-dashoffset:0;stroke-opacity:1"
       id="path4410"
       cx="98.823257"
       cy="948.94958"
       rx="13.767945"
       ry="12.850082" />
    <path
       style="opacity:0.98999999;fill:#b3b3b3;fill-opacity:0.41666667;fill-rule:nonzero;stroke:#000000;stroke-width:1.22381735;stroke-linecap:butt;stroke-linejoin:bevel;stroke-miterlimit:4;stroke-dasharray:none;stroke-dashoffset:0;stroke-opacity:1"
       d="m 2.4575877,100.54838 0,-99.74112053 98.2113423,0 98.21135,0 0,99.74112053 0,99.74111 -98.21135,0 -98.2113423,0 0,-99.74111 z m 107.5779023,51.74797 -0.18793,-17.39771 5.04825,-0.42002 c 2.77653,-0.23101 5.03544,-0.59397 5.01978,-0.80658 -0.0516,-0.70137 -21.218932,-18.1319 -22.019015,-18.1319 -0.43063,0 -5.104683,3.85502 -10.386795,8.56672 l -9.603827,8.56672 5.319145,0.17466 5.319138,0.17467 0.402196,12.00893 c 0.221205,6.60491 0.402189,14.85592 0.402189,18.33558 l 0,6.32664 10.4374,0 10.437399,0 -0.18793,-17.39771 z m 43.79984,-46.06667 c -0.43368,-2.93319 -0.7331,-5.37036 -0.66538,-5.41595 0.0677,-0.0456 7.9163,-1.286802 17.44129,-2.75824 9.52499,-1.471445 17.57129,-2.831791 17.88068,-3.023001 0.53284,-0.329317 -1.49554,-19.422055 -2.13086,-20.057381 -0.24304,-0.243044 -28.10508,3.592204 -32.86386,4.523749 -1.55946,0.305269 -1.66309,0.162156 -2.34361,-3.236465 -1.59753,-7.978408 -0.69653,-8.481929 -9.35511,5.228099 -4.27929,6.775837 -7.75954,12.527833 -7.73389,12.782228 0.0512,0.507646 19.61928,17.237491 20.19982,17.269931 0.19768,0.011 0.005,-2.37979 -0.42908,-5.31297 z m -48.57708,3.10212 c 8.6385,-3.59241 11.29322,-14.809814 5.1216,-21.641064 -5.76936,-6.38599 -16.030491,-6.863621 -22.176789,-1.032272 -8.197796,7.777727 -4.274819,20.858706 7.091783,23.647216 2.751967,0.67513 6.995556,0.26034 9.963406,-0.97388 z M 63.778022,95.194174 73.990576,84.944704 66.359267,74.542256 C 62.162047,68.82091 58.498657,64.061484 58.2184,63.965751 c -0.280258,-0.09573 -0.698824,2.095396 -0.930149,4.869178 -0.231324,2.773776 -0.516228,5.13887 -0.633119,5.255763 -0.116891,0.116893 -7.374899,-0.353249 -16.128908,-1.044749 -8.754008,-0.691499 -16.8616,-1.257276 -18.01687,-1.257276 l -2.100491,0 -1.072698,9.840648 c -0.589984,5.412357 -0.944251,9.9691 -0.78726,10.126091 0.24501,0.245009 31.646593,3.275792 34.016367,3.283154 0.690521,0.0024 0.770243,0.973699 0.42701,5.20386 -0.232113,2.86067 -0.198103,5.20122 0.07558,5.20122 0.273681,0 5.093253,-4.61226 10.710161,-10.249466 z m 46.552258,-30.901388 9.89125,-8.719699 -5.25293,-0.175532 -5.25294,-0.175531 -0.4469,-18.181729 c -0.24579,-9.999951 -0.49147,-18.219153 -0.54595,-18.264893 -0.0545,-0.04574 -4.64249,-0.18342 -10.195559,-0.305955 l -10.096493,-0.22279 -0.162364,17.592375 -0.162358,17.592374 -4.885889,0 c -2.687233,0 -4.885882,0.240407 -4.885882,0.534238 0,0.482734 21.316775,19.04684 21.871085,19.04684 0.12853,0 4.68475,-3.923864 10.12493,-8.719698 z"
       id="path4412"
       inkscape:connector-curvature="0"
       transform="translate(-7.6293945e-6,852.36216)" />
  </g>
</svg>
